<svg xmlns="http://www.w3.org/2000/svg" xmlns:xlink="http://www.w3.org/1999/xlink" version="1.1" x="0px" y="0px" viewBox="0 0 256 320" enable-background="new 0 0 256 256" xml:space="preserve"><g><g><path fill="#000000" d="M128.202,115.446c6.262,0,12.525-0.024,18.787,0.012c2.178,0.012,3.245,1.09,3.14,2.958    c-0.097,1.714-1.163,2.576-3.342,2.586c-5.24,0.025-10.48,0.017-15.721,0.017c-7.285-0.001-14.57,0-21.854-0.019    c-2.094-0.005-3.128-0.785-3.32-2.401c-0.227-1.913,0.924-3.13,3.139-3.142C115.422,115.425,121.812,115.446,128.202,115.446z"/><path fill="#000000" d="M128.202,127.34c6.262,0,12.525-0.023,18.787,0.012c2.173,0.012,3.243,1.091,3.14,2.957    c-0.095,1.714-1.162,2.574-3.341,2.584c-5.304,0.023-10.608,0.016-15.912,0.016c-7.157,0-14.314,0-21.471-0.011    c-2.29-0.004-3.312-0.72-3.512-2.404c-0.227-1.913,0.923-3.13,3.139-3.142C115.421,127.319,121.812,127.341,128.202,127.34z"/><g><path fill="#000000" d="M63.352,151.515v-0.27c0-10.423,8.937-11.34,16.15-12.165c8.861-1.01,17.778-0.413,26.665-0.413h35.104     c9.842,0,19.69,0,29.538-0.014c8.075-0.014,21.841-0.043,21.841,12.592v0.27c0,7.387-5.232,10.125-10.509,12.556     c-11.182,4.664-24.438,7.885-38.865,9.208h-29.57c-14.401-1.323-27.633-4.537-38.814-9.186     C69.106,161.704,63.352,159.613,63.352,151.515z"/></g><path fill="#000000" d="M197.796,241.481c0,6.44-5.469,11.592-12.02,11.069c-5.87-0.468-10.406-5.631-10.177-11.515    c0.047-1.215,0.287-2.377,0.702-3.459c-15.892-5.333-30.859-7.572-44.292-7.974c3.917,2.049,6.453,6.351,5.882,11.19    c-0.596,5.046-4.685,9.105-9.734,9.673c-6.717,0.756-12.398-4.471-12.398-11.027c0-4.245,2.383-7.93,5.88-9.798    c-18.281,0.692-32.928,4.559-42.034,7.685c0.843,2.072,1.079,4.472,0.47,6.909c-1.153,4.609-5.246,8.005-9.986,8.328    c-6.491,0.441-11.884-4.684-11.884-11.08c0-4.283,2.427-7.993,5.987-9.848l-2.434-4.679c0.616-0.321,15.407-7.911,39.059-11.71    c4.415-0.704,9.339-1.302,14.678-1.673v-28.02c0-2.029,1.645-3.675,3.675-3.675h17.66c2.03,0,3.675,1.645,3.675,3.675v28.134    c16.055,1.258,34.167,4.974,53.272,12.986l-2.057,4.911C195.324,233.419,197.796,237.16,197.796,241.481z"/><g><path fill="#000000" d="M135.094,108.652c2.881,0,34.312-1.713,34.312-1.713c18.597-3.671,15.978-16.642,15.978-16.642     l-6.286-71.954c-4.453-12.482-15.716-12.971-15.716-12.971c-8.825-1.145-32.258-1.862-35.226-1.949V3.413     c0,0-0.054,0.002-0.156,0.004c-0.102-0.003-0.156-0.004-0.156-0.004v0.009c-2.968,0.087-26.401,0.804-35.226,1.949     c0,0-11.263,0.489-15.716,12.971l-6.286,71.954c0,0-2.62,12.971,15.977,16.642c0,0,31.431,1.713,34.312,1.713H135.094z"/></g><path fill="#000000" d="M50.578,112.362H24.267c-1.122,0-2.04-0.918-2.04-2.04V96.304c0-1.122,0.918-2.04,2.04-2.04h26.31    c1.122,0,2.04,0.918,2.04,2.04v14.018C52.617,111.444,51.699,112.362,50.578,112.362z"/><path fill="#000000" d="M52.104,149.581h-5.463c-2.824,0-5.122-2.298-5.122-5.123v-20.829c0-2.824-2.298-5.122-5.122-5.122    c-2.824,0-5.122,2.298-5.122,5.122v20.829c0,8.473,6.893,15.367,15.366,15.367h5.463c2.824,0,5.122-2.298,5.122-5.122    C57.227,151.879,54.929,149.581,52.104,149.581z"/><path fill="#000000" d="M205.422,112.362h26.311c1.122,0,2.04-0.918,2.04-2.04V96.304c0-1.122-0.918-2.04-2.04-2.04h-26.311    c-1.122,0-2.04,0.918-2.04,2.04v14.018C203.383,111.444,204.301,112.362,205.422,112.362z"/><path fill="#000000" d="M203.895,149.581h5.463c2.824,0,5.122-2.298,5.122-5.123v-20.829c0-2.824,2.298-5.122,5.122-5.122    s5.122,2.298,5.122,5.122v20.829c0,8.473-6.893,15.367-15.366,15.367h-5.463c-2.824,0-5.122-2.298-5.122-5.122    C198.774,151.879,201.071,149.581,203.895,149.581z"/></g></g></svg>